<?xml version="1.0" encoding="UTF-8"?>
<!DOCTYPE svg PUBLIC "-//W3C//DTD SVG 1.1//EN" "http://www.w3.org/Graphics/SVG/1.1/DTD/svg11.dtd">
<svg xmlns="http://www.w3.org/2000/svg" version="1.1" width="456px" height="456px" style="shape-rendering:geometricPrecision; text-rendering:geometricPrecision; image-rendering:optimizeQuality; fill-rule:evenodd; clip-rule:evenodd" xmlns:xlink="http://www.w3.org/1999/xlink">
<g><path style="opacity:1" fill="#947eaf" d="M -0.5,-0.5 C 151.5,-0.5 303.5,-0.5 455.5,-0.5C 455.5,151.5 455.5,303.5 455.5,455.5C 303.5,455.5 151.5,455.5 -0.5,455.5C -0.5,303.5 -0.5,151.5 -0.5,-0.5 Z"/></g>
<g><path style="opacity:1" fill="#a691c6" d="M 167.5,131.5 C 167.565,131.938 167.399,132.272 167,132.5C 166,131.5 165,130.5 164,129.5C 163.283,130.044 162.783,130.711 162.5,131.5C 160.145,130.495 158.145,130.495 156.5,131.5C 157.666,128.497 159.333,125.83 161.5,123.5C 163.909,125.902 165.909,128.569 167.5,131.5 Z"/></g>
<g><path style="opacity:1" fill="#aa97d0" d="M 171.5,130.5 C 216.331,129.335 261.331,129.169 306.5,130C 307.737,130.232 308.737,130.732 309.5,131.5C 263.477,131.813 217.477,131.48 171.5,130.5 Z"/></g>
<g><path style="opacity:1" fill="#ac97d6" d="M 171.5,131.5 C 171.5,131.167 171.5,130.833 171.5,130.5C 217.477,131.48 263.477,131.813 309.5,131.5C 313.745,133.635 317.745,136.302 321.5,139.5C 322.705,140.577 323.372,141.91 323.5,143.5C 322.378,145.288 322.211,147.288 323,149.5C 325.092,151.771 326.426,154.437 327,157.5C 327.667,201.833 327.667,246.167 327,290.5C 325.379,292.493 323.713,294.493 322,296.5C 321.517,297.448 321.351,298.448 321.5,299.5C 320.585,303.283 318.585,306.283 315.5,308.5C 314.25,308.577 313.417,309.244 313,310.5C 312.667,258.833 312.333,207.167 312,155.5C 311.344,153.014 309.844,151.347 307.5,150.5C 305.948,147.888 303.614,146.555 300.5,146.5C 260.67,145.501 220.67,145.168 180.5,145.5C 180.61,142.941 179.944,140.608 178.5,138.5C 177.386,142.728 175.72,146.728 173.5,150.5C 173.167,150 172.833,149.5 172.5,149C 173.087,146.375 173.42,143.708 173.5,141C 173.672,137.523 173.006,134.356 171.5,131.5 Z"/></g>
<g><path style="opacity:1" fill="#6d5794" d="M 164.5,147.5 C 162.626,142.303 161.292,142.636 160.5,148.5C 159.686,150.631 159.186,152.964 159,155.5C 157.264,153.937 155.764,152.27 154.5,150.5C 153.362,147.696 153.195,144.696 154,141.5C 155.842,139.136 157.675,136.803 159.5,134.5C 161.368,133.243 163.035,133.576 164.5,135.5C 172.684,141.251 173.517,147.918 167,155.5C 166.721,152.543 165.887,149.877 164.5,147.5 Z"/></g>
<g><path style="opacity:1" fill="#7b669f" d="M 170.5,129.5 C 169.222,129.782 168.222,130.449 167.5,131.5C 165.909,128.569 163.909,125.902 161.5,123.5C 159.333,125.83 157.666,128.497 156.5,131.5C 158.145,130.495 160.145,130.495 162.5,131.5C 161.1,132.1 160.1,133.1 159.5,134.5C 157.675,136.803 155.842,139.136 154,141.5C 153.195,144.696 153.362,147.696 154.5,150.5C 152.807,151.853 151.474,153.52 150.5,155.5C 145.655,151.025 144.321,145.692 146.5,139.5C 146.343,140.873 146.51,142.207 147,143.5C 149.094,145.921 150.76,148.588 152,151.5C 150.653,146.325 150.32,140.991 151,135.5C 154.262,128.641 157.762,121.974 161.5,115.5C 164.105,120.435 167.105,125.101 170.5,129.5 Z"/></g>
<g><path style="opacity:1" fill="#bba7e6" d="M 180.5,145.5 C 220.67,145.168 260.67,145.501 300.5,146.5C 260.094,146.173 219.761,146.506 179.5,147.5C 179.328,146.508 179.662,145.842 180.5,145.5 Z"/></g>
<g><path style="opacity:1" fill="#a08dc3" d="M 164.5,147.5 C 162.801,147.527 161.467,148.194 160.5,149.5C 160.5,149.167 160.5,148.833 160.5,148.5C 161.292,142.636 162.626,142.303 164.5,147.5 Z"/></g>
<g><path style="opacity:1" fill="#c8b4f1" d="M 300.5,146.5 C 303.614,146.555 305.948,147.888 307.5,150.5C 308.64,152.78 309.807,155.114 311,157.5C 310.837,209.51 311.67,261.176 313.5,312.5C 313.5,312.833 313.5,313.167 313.5,313.5C 312.504,313.414 311.671,313.748 311,314.5C 309.961,313.29 308.794,312.29 307.5,311.5C 307.5,310.833 307.5,310.167 307.5,309.5C 308.113,306.031 306.779,304.031 303.5,303.5C 303.5,304.833 303.5,306.167 303.5,307.5C 299.7,307.819 299.534,308.819 303,310.5C 303.495,312.473 303.662,314.473 303.5,316.5C 299.388,315.278 295.721,313.278 292.5,310.5C 293.072,308.745 293.906,307.078 295,305.5C 295.667,289.5 295.667,273.5 295,257.5C 290.926,248.797 284.26,245.797 275,248.5C 271.921,250.076 269.754,252.409 268.5,255.5C 267.778,255.918 267.278,256.584 267,257.5C 266.5,270.496 266.333,283.496 266.5,296.5C 264.014,295.223 263.347,295.889 264.5,298.5C 267.154,299.836 269.487,301.503 271.5,303.5C 270.022,303.238 268.689,303.571 267.5,304.5C 269.055,308.386 271.388,311.72 274.5,314.5C 278.094,315.426 281.76,315.759 285.5,315.5C 288.977,319.089 292.644,321.923 296.5,324C 293.56,325.152 290.56,326.152 287.5,327C 290.167,327.333 292.833,327.667 295.5,328C 295.229,330.411 295.562,332.911 296.5,335.5C 295.127,335.343 293.793,335.51 292.5,336C 293.056,336.383 293.389,336.883 293.5,337.5C 292.391,337.557 291.391,337.89 290.5,338.5C 252.161,338.833 213.828,338.5 175.5,337.5C 170.445,335.945 167.278,332.612 166,327.5C 165.5,285.168 165.333,242.835 165.5,200.5C 168.373,190.002 171.707,179.669 175.5,169.5C 175.5,169.167 175.5,168.833 175.5,168.5C 177.759,164.79 178.426,160.79 177.5,156.5C 176.52,157.981 175.353,159.315 174,160.5C 173.601,160.272 173.435,159.938 173.5,159.5C 176.027,155.779 178.027,151.779 179.5,147.5C 219.761,146.506 260.094,146.173 300.5,146.5 Z"/></g>
<g><path style="opacity:1" fill="#927bb3" d="M 146.5,139.5 C 144.321,145.692 145.655,151.025 150.5,155.5C 150.933,158.195 152.266,160.362 154.5,162C 152.255,161.805 150.422,160.638 149,158.5C 148.51,160.545 148.677,162.545 149.5,164.5C 147.952,164.821 147.285,165.821 147.5,167.5C 146.179,163.767 146.179,159.934 147.5,156C 146.437,154.812 145.103,154.312 143.5,154.5C 143.149,149.022 143.816,143.688 145.5,138.5C 146.107,138.624 146.44,138.957 146.5,139.5 Z"/></g>
<g><path style="opacity:1" fill="#7a65a3" d="M 167.5,131.5 C 168.222,130.449 169.222,129.782 170.5,129.5C 170.328,130.492 170.662,131.158 171.5,131.5C 173.006,134.356 173.672,137.523 173.5,141C 173.42,143.708 173.087,146.375 172.5,149C 172.833,149.5 173.167,150 173.5,150.5C 175.72,146.728 177.386,142.728 178.5,138.5C 179.944,140.608 180.61,142.941 180.5,145.5C 179.662,145.842 179.328,146.508 179.5,147.5C 178.027,151.779 176.027,155.779 173.5,159.5C 170.769,160.953 169.769,162.953 170.5,165.5C 169.312,166.364 168.145,167.364 167,168.5C 165.334,166.043 166,164.043 169,162.5C 170.309,160.253 170.975,157.92 171,155.5C 168.957,157.382 166.791,159.049 164.5,160.5C 165.15,158.565 165.483,156.565 165.5,154.5C 165.007,152.194 164.674,149.861 164.5,147.5C 165.887,149.877 166.721,152.543 167,155.5C 173.517,147.918 172.684,141.251 164.5,135.5C 163.035,133.576 161.368,133.243 159.5,134.5C 160.1,133.1 161.1,132.1 162.5,131.5C 162.783,130.711 163.283,130.044 164,129.5C 165,130.5 166,131.5 167,132.5C 167.399,132.272 167.565,131.938 167.5,131.5 Z"/></g>
<g><path style="opacity:1" fill="#c3b1e0" d="M 164.5,147.5 C 164.674,149.861 165.007,152.194 165.5,154.5C 164.442,155.6 163.608,156.934 163,158.5C 162.392,156.934 161.558,155.6 160.5,154.5C 160.5,152.833 160.5,151.167 160.5,149.5C 161.467,148.194 162.801,147.527 164.5,147.5 Z"/></g>
<g><path style="opacity:1" fill="#a18ec2" d="M 160.5,154.5 C 161.558,155.6 162.392,156.934 163,158.5C 163.608,156.934 164.442,155.6 165.5,154.5C 165.483,156.565 165.15,158.565 164.5,160.5C 163.778,160.918 163.278,161.584 163,162.5C 161.659,159.978 160.826,157.311 160.5,154.5 Z"/></g>
<g><path style="opacity:1" fill="#8470ab" d="M 175.5,168.5 C 175.392,166.217 174.559,164.217 173,162.5C 171.955,163.373 171.122,164.373 170.5,165.5C 169.769,162.953 170.769,160.953 173.5,159.5C 173.435,159.938 173.601,160.272 174,160.5C 175.353,159.315 176.52,157.981 177.5,156.5C 178.426,160.79 177.759,164.79 175.5,168.5 Z"/></g>
<g><path style="opacity:1" fill="#ac98d3" d="M 323.5,143.5 C 325.957,146.751 327.624,150.418 328.5,154.5C 327.838,199.512 328.505,244.179 330.5,288.5C 328.396,290.372 327.063,292.705 326.5,295.5C 324.846,296.75 323.179,298.084 321.5,299.5C 321.351,298.448 321.517,297.448 322,296.5C 323.713,294.493 325.379,292.493 327,290.5C 327.667,246.167 327.667,201.833 327,157.5C 326.426,154.437 325.092,151.771 323,149.5C 322.211,147.288 322.378,145.288 323.5,143.5 Z"/></g>
<g><path style="opacity:1" fill="#947eb6" d="M 329.5,157.5 C 330.525,158.374 331.192,159.541 331.5,161C 330.17,198.493 330.17,235.993 331.5,273.5C 330.989,277.002 330.322,280.335 329.5,283.5C 329.5,241.5 329.5,199.5 329.5,157.5 Z"/></g>
<g><path style="opacity:1" fill="#beaae7" d="M 307.5,150.5 C 309.844,151.347 311.344,153.014 312,155.5C 312.333,207.167 312.667,258.833 313,310.5C 313.417,309.244 314.25,308.577 315.5,308.5C 314.833,309.833 314.167,311.167 313.5,312.5C 311.67,261.176 310.837,209.51 311,157.5C 309.807,155.114 308.64,152.78 307.5,150.5 Z"/></g>
<g><path style="opacity:1" fill="#7a65a2" d="M 160.5,148.5 C 160.5,148.833 160.5,149.167 160.5,149.5C 160.5,151.167 160.5,152.833 160.5,154.5C 160.826,157.311 161.659,159.978 163,162.5C 163.278,161.584 163.778,160.918 164.5,160.5C 166.112,162.963 165.612,164.963 163,166.5C 160.968,162.046 157.968,158.38 154,155.5C 153.508,156.549 153.674,157.549 154.5,158.5C 156.85,160.687 158.85,163.187 160.5,166C 160.07,166.92 159.736,167.753 159.5,168.5C 154.694,165.67 153.36,167.003 155.5,172.5C 155.5,173.833 154.833,174.5 153.5,174.5C 152.308,172.887 151.308,171.22 150.5,169.5C 150.443,168.391 150.11,167.391 149.5,166.5C 149.5,165.833 149.5,165.167 149.5,164.5C 148.677,162.545 148.51,160.545 149,158.5C 150.422,160.638 152.255,161.805 154.5,162C 152.266,160.362 150.933,158.195 150.5,155.5C 151.474,153.52 152.807,151.853 154.5,150.5C 155.764,152.27 157.264,153.937 159,155.5C 159.186,152.964 159.686,150.631 160.5,148.5 Z"/></g>
<g><path style="opacity:1" fill="#a28dc6" d="M 328.5,154.5 C 329.404,155.209 329.737,156.209 329.5,157.5C 329.5,199.5 329.5,241.5 329.5,283.5C 329.232,285.099 329.566,286.432 330.5,287.5C 330.5,287.833 330.5,288.167 330.5,288.5C 328.505,244.179 327.838,199.512 328.5,154.5 Z"/></g>
<g><path style="opacity:1" fill="#6f5a95" d="M 164.5,160.5 C 166.791,159.049 168.957,157.382 171,155.5C 170.975,157.92 170.309,160.253 169,162.5C 166,164.043 165.334,166.043 167,168.5C 168.145,167.364 169.312,166.364 170.5,165.5C 171.122,164.373 171.955,163.373 173,162.5C 174.559,164.217 175.392,166.217 175.5,168.5C 175.5,168.833 175.5,169.167 175.5,169.5C 173.61,169.297 172.11,169.963 171,171.5C 170.751,170.376 170.251,169.376 169.5,168.5C 168.893,168.624 168.56,168.957 168.5,169.5C 165.73,171.366 164.23,174.032 164,177.5C 163.495,173.521 161.328,170.854 157.5,169.5C 156.708,170.7 156.708,172.033 157.5,173.5C 156.833,173.167 156.167,172.833 155.5,172.5C 153.36,167.003 154.694,165.67 159.5,168.5C 159.736,167.753 160.07,166.92 160.5,166C 158.85,163.187 156.85,160.687 154.5,158.5C 153.674,157.549 153.508,156.549 154,155.5C 157.968,158.38 160.968,162.046 163,166.5C 165.612,164.963 166.112,162.963 164.5,160.5 Z"/></g>
<g><path style="opacity:1" fill="#ac98d6" d="M 289.5,228.5 C 287.518,228.995 285.518,229.495 283.5,230C 253.835,230.5 224.169,230.667 194.5,230.5C 188.311,229.807 184.478,226.474 183,220.5C 182.333,206.5 182.333,192.5 183,178.5C 184.41,174.089 187.243,170.922 191.5,169C 223.548,168.03 255.548,168.363 287.5,170C 291.085,171.916 293.585,174.749 295,178.5C 295.667,192.5 295.667,206.5 295,220.5C 293.407,223.36 291.574,226.026 289.5,228.5 Z"/></g>
<g><path style="opacity:1" fill="#ac98d7" d="M 150.5,169.5 C 151.308,171.22 152.308,172.887 153.5,174.5C 156.289,180.697 158.789,187.03 161,193.5C 162.026,196.239 163.526,198.572 165.5,200.5C 165.333,242.835 165.5,285.168 166,327.5C 167.278,332.612 170.445,335.945 175.5,337.5C 213.828,338.5 252.161,338.833 290.5,338.5C 291.303,339.423 291.47,340.423 291,341.5C 289,342.167 287.667,343.5 287,345.5C 286.667,344.833 286.333,344.167 286,343.5C 285.837,345.676 285.004,347.509 283.5,349C 283.957,349.414 284.291,349.914 284.5,350.5C 283.476,351.852 282.476,353.185 281.5,354.5C 279.833,354.5 278.167,354.5 276.5,354.5C 275.739,353.609 274.739,352.942 273.5,352.5C 240.87,353.826 208.203,353.826 175.5,352.5C 172.553,351.679 169.553,351.179 166.5,351C 166.957,350.586 167.291,350.086 167.5,349.5C 165.831,348.329 164.331,346.996 163,345.5C 160.83,346.72 158.663,346.72 156.5,345.5C 153.621,341.95 151.621,337.95 150.5,333.5C 151.658,278.793 151.658,224.126 150.5,169.5 Z"/></g>
<g><path style="opacity:1" fill="#9a85bd" d="M 149.5,164.5 C 149.5,165.167 149.5,165.833 149.5,166.5C 148.501,221.664 148.168,276.997 148.5,332.5C 147.501,277.669 147.168,222.669 147.5,167.5C 147.285,165.821 147.952,164.821 149.5,164.5 Z"/></g>
<g><path style="opacity:1" fill="#aa97d1" d="M 149.5,166.5 C 150.11,167.391 150.443,168.391 150.5,169.5C 151.658,224.126 151.658,278.793 150.5,333.5C 149.833,333.167 149.167,332.833 148.5,332.5C 148.168,276.997 148.501,221.664 149.5,166.5 Z"/></g>
<g><path style="opacity:1" fill="#7f6ba5" d="M 168.5,169.5 C 168.56,168.957 168.893,168.624 169.5,168.5C 170.251,169.376 170.751,170.376 171,171.5C 172.11,169.963 173.61,169.297 175.5,169.5C 171.707,179.669 168.373,190.002 165.5,200.5C 163.526,198.572 162.026,196.239 161,193.5C 158.789,187.03 156.289,180.697 153.5,174.5C 154.833,174.5 155.5,173.833 155.5,172.5C 156.167,172.833 156.833,173.167 157.5,173.5C 159.248,175.16 159.748,177.16 159,179.5C 158.667,179.167 158.333,178.833 158,178.5C 158.766,182.614 160.266,186.614 162.5,190.5C 164.347,191.83 165.847,191.497 167,189.5C 167.33,186.511 168.164,183.678 169.5,181C 168.518,180.619 167.852,179.786 167.5,178.5C 168.089,175.978 168.755,173.478 169.5,171C 169.43,170.235 169.097,169.735 168.5,169.5 Z"/></g>
<g><path style="opacity:1" fill="#947eaf" d="M 277.5,191.5 C 277.5,198.833 277.5,206.167 277.5,213.5C 251.5,213.5 225.5,213.5 199.5,213.5C 199.5,205.167 199.5,196.833 199.5,188.5C 201.55,188.039 203.55,187.372 205.5,186.5C 228.791,187.323 252.124,187.823 275.5,188C 276.085,189.302 276.751,190.469 277.5,191.5 Z"/></g>
<g><path style="opacity:1" fill="#937db4" d="M 278.5,191.5 C 278.167,191.5 277.833,191.5 277.5,191.5C 276.751,190.469 276.085,189.302 275.5,188C 252.124,187.823 228.791,187.323 205.5,186.5C 203.55,187.372 201.55,188.039 199.5,188.5C 199.5,187.5 199.5,186.5 199.5,185.5C 225.833,185.5 252.167,185.5 278.5,185.5C 278.5,187.5 278.5,189.5 278.5,191.5 Z"/></g>
<g><path style="opacity:1" fill="#a796c7" d="M 168.5,169.5 C 169.097,169.735 169.43,170.235 169.5,171C 168.755,173.478 168.089,175.978 167.5,178.5C 167.852,179.786 168.518,180.619 169.5,181C 168.164,183.678 167.33,186.511 167,189.5C 165.847,191.497 164.347,191.83 162.5,190.5C 160.266,186.614 158.766,182.614 158,178.5C 158.333,178.833 158.667,179.167 159,179.5C 159.748,177.16 159.248,175.16 157.5,173.5C 156.708,172.033 156.708,170.7 157.5,169.5C 161.328,170.854 163.495,173.521 164,177.5C 164.23,174.032 165.73,171.366 168.5,169.5 Z"/></g>
<g><path style="opacity:1" fill="#9d8bc0" d="M 277.5,191.5 C 277.833,191.5 278.167,191.5 278.5,191.5C 278.5,199.167 278.5,206.833 278.5,214.5C 254.833,214.5 231.167,214.5 207.5,214.5C 204.615,214.806 201.948,214.473 199.5,213.5C 225.5,213.5 251.5,213.5 277.5,213.5C 277.5,206.167 277.5,198.833 277.5,191.5 Z"/></g>
<g><path style="opacity:1" fill="#ac98d1" d="M 207.5,214.5 C 231.167,214.5 254.833,214.5 278.5,214.5C 279.646,216.559 278.813,217.559 276,217.5C 274.373,217.375 272.873,216.875 271.5,216C 249.996,215.832 228.663,215.332 207.5,214.5 Z"/></g>
<g><path style="opacity:1" fill="#bfabe8" d="M 289.5,228.5 C 289.013,229.473 288.513,230.473 288,231.5C 256.786,231.809 225.62,231.475 194.5,230.5C 224.169,230.667 253.835,230.5 283.5,230C 285.518,229.495 287.518,228.995 289.5,228.5 Z"/></g>
<g><path style="opacity:1" fill="#ac98d7" d="M 191.5,247.5 C 205.152,246.814 211.152,253.147 209.5,266.5C 205.4,274.215 199.067,277.048 190.5,275C 183.387,270.445 180.887,263.945 183,255.5C 185.538,252.488 188.371,249.821 191.5,247.5 Z"/></g>
<g><path style="opacity:1" fill="#ac98d6" d="M 234.5,247.5 C 247.41,247.245 253.243,253.578 252,266.5C 247.057,275.314 239.891,277.647 230.5,273.5C 224.476,268.672 222.976,262.672 226,255.5C 228.098,251.897 230.932,249.23 234.5,247.5 Z"/></g>
<g><path style="opacity:1" fill="#ac98d7" d="M 292.5,310.5 C 287.762,311.075 284.095,309.408 281.5,305.5C 279.301,301.646 275.967,299.313 271.5,298.5C 269.62,298.771 268.287,298.104 267.5,296.5C 267.24,282.804 267.573,269.137 268.5,255.5C 269.754,252.409 271.921,250.076 275,248.5C 284.26,245.797 290.926,248.797 295,257.5C 295.667,273.5 295.667,289.5 295,305.5C 293.906,307.078 293.072,308.745 292.5,310.5 Z"/></g>
<g><path style="opacity:1" fill="#b9a5e4" d="M 268.5,255.5 C 267.573,269.137 267.24,282.804 267.5,296.5C 267.167,296.5 266.833,296.5 266.5,296.5C 266.333,283.496 266.5,270.496 267,257.5C 267.278,256.584 267.778,255.918 268.5,255.5 Z"/></g>
<g><path style="opacity:1" fill="#baa4d5" d="M 346.5,271.5 C 346.062,270.494 345.396,270.494 344.5,271.5C 346.305,269.266 348.138,266.933 350,264.5C 349.915,267.336 348.749,269.669 346.5,271.5 Z"/></g>
<g><path style="opacity:1" fill="#d9c7f5" d="M 346.5,271.5 C 343.806,275.851 341.14,280.184 338.5,284.5C 336.75,285.659 335.75,287.326 335.5,289.5C 334.728,290.694 333.728,291.694 332.5,292.5C 332.631,291.624 332.298,290.957 331.5,290.5C 329.599,292.006 327.932,293.673 326.5,295.5C 327.063,292.705 328.396,290.372 330.5,288.5C 330.5,288.167 330.5,287.833 330.5,287.5C 335.51,282.488 340.177,277.155 344.5,271.5C 345.396,270.494 346.062,270.494 346.5,271.5 Z"/></g>
<g><path style="opacity:1" fill="#ac98d7" d="M 233.5,287.5 C 246.991,286.823 253.157,293.156 252,306.5C 246.314,315.565 238.814,317.565 229.5,312.5C 221.958,302.703 223.291,294.37 233.5,287.5 Z"/></g>
<g><path style="opacity:1" fill="#ac98d7" d="M 191.5,287.5 C 202.833,286.166 209.166,291.166 210.5,302.5C 208.194,312.659 201.861,316.826 191.5,315C 182.057,309.074 180.057,301.24 185.5,291.5C 187.29,289.684 189.29,288.351 191.5,287.5 Z"/></g>
<g><path style="opacity:1" fill="#ae9acb" d="M 338.5,284.5 C 338.408,286.848 337.408,288.514 335.5,289.5C 335.75,287.326 336.75,285.659 338.5,284.5 Z"/></g>
<g><path style="opacity:1" fill="#baa8d7" d="M 332.5,294.5 C 331.925,296.411 330.925,298.078 329.5,299.5C 329.167,299.5 328.833,299.5 328.5,299.5C 329.08,297.251 330.413,295.585 332.5,294.5 Z"/></g>
<g><path style="opacity:1" fill="#bcabe1" d="M 271.5,298.5 C 275.967,299.313 279.301,301.646 281.5,305.5C 277.108,304.641 273.775,302.307 271.5,298.5 Z"/></g>
<g><path style="opacity:1" fill="#ac98d4" d="M 328.5,299.5 C 328.833,299.5 329.167,299.5 329.5,299.5C 329.5,306.5 329.5,313.5 329.5,320.5C 325.6,319.57 321.6,319.237 317.5,319.5C 317.4,316.892 318.067,314.558 319.5,312.5C 322.266,307.955 325.266,303.622 328.5,299.5 Z"/></g>
<g><path style="opacity:1" fill="#ad9ad7" d="M 271.5,303.5 C 272.167,303.833 272.833,304.167 273.5,304.5C 276.161,309.158 280.161,311.825 285.5,312.5C 285.5,313.5 285.5,314.5 285.5,315.5C 281.76,315.759 278.094,315.426 274.5,314.5C 271.388,311.72 269.055,308.386 267.5,304.5C 268.689,303.571 270.022,303.238 271.5,303.5 Z"/></g>
<g><path style="opacity:1" fill="#c1b0e6" d="M 273.5,304.5 C 277.542,307.182 281.542,309.848 285.5,312.5C 280.161,311.825 276.161,309.158 273.5,304.5 Z"/></g>
<g><path style="opacity:1" fill="#ddcdfa" d="M 332.5,292.5 C 332.5,293.167 332.5,293.833 332.5,294.5C 330.413,295.585 329.08,297.251 328.5,299.5C 325.266,303.622 322.266,307.955 319.5,312.5C 315.992,314.425 314.659,317.425 315.5,321.5C 319.702,321.183 323.702,321.517 327.5,322.5C 325.708,322.366 324.042,322.699 322.5,323.5C 321.5,323.5 320.5,323.5 319.5,323.5C 317.5,323.833 315.5,324.167 313.5,324.5C 312.722,323.844 312.056,323.011 311.5,322C 313.227,319.379 314.56,316.545 315.5,313.5C 315.03,312.537 314.363,312.537 313.5,313.5C 313.5,313.167 313.5,312.833 313.5,312.5C 314.167,311.167 314.833,309.833 315.5,308.5C 318.585,306.283 320.585,303.283 321.5,299.5C 323.179,298.084 324.846,296.75 326.5,295.5C 327.932,293.673 329.599,292.006 331.5,290.5C 332.298,290.957 332.631,291.624 332.5,292.5 Z"/></g>
<g><path style="opacity:1" fill="#cfbfef" d="M 307.5,311.5 C 308.794,312.29 309.961,313.29 311,314.5C 311.671,313.748 312.504,313.414 313.5,313.5C 313.167,314.5 312.5,315.167 311.5,315.5C 308.099,316.773 306.766,315.44 307.5,311.5 Z"/></g>
<g><path style="opacity:1" fill="#e3d4fb" d="M 313.5,324.5 C 312.557,326.001 312.891,327.335 314.5,328.5C 314.672,329.492 314.338,330.158 313.5,330.5C 312.202,329.884 311.202,329.884 310.5,330.5C 309.833,332.833 309.167,335.167 308.5,337.5C 308.5,336.833 308.5,336.167 308.5,335.5C 308.525,330.97 307.025,329.97 304,332.5C 303.517,333.448 303.351,334.448 303.5,335.5C 301.956,335.703 300.622,336.37 299.5,337.5C 299.167,337 298.833,336.5 298.5,336C 300.828,331.682 302.661,327.182 304,322.5C 305.011,323.337 306.178,323.67 307.5,323.5C 307.34,321.801 307.506,320.134 308,318.5C 310.307,319.39 311.473,318.39 311.5,315.5C 312.5,315.167 313.167,314.5 313.5,313.5C 314.363,312.537 315.03,312.537 315.5,313.5C 314.56,316.545 313.227,319.379 311.5,322C 312.056,323.011 312.722,323.844 313.5,324.5 Z"/></g>
<g><path style="opacity:1" fill="#b9a8dc" d="M 319.5,312.5 C 318.067,314.558 317.4,316.892 317.5,319.5C 321.6,319.237 325.6,319.57 329.5,320.5C 331.665,321.062 331.332,321.729 328.5,322.5C 328.167,322.5 327.833,322.5 327.5,322.5C 323.702,321.517 319.702,321.183 315.5,321.5C 314.659,317.425 315.992,314.425 319.5,312.5 Z"/></g>
<g><path style="opacity:1" fill="#ac98d6" d="M 327.5,322.5 C 327.833,322.5 328.167,322.5 328.5,322.5C 328.533,326.869 328.2,331.202 327.5,335.5C 324.552,333.856 322.219,331.523 320.5,328.5C 321.174,326.805 321.841,325.138 322.5,323.5C 324.042,322.699 325.708,322.366 327.5,322.5 Z"/></g>
<g><path style="opacity:1" fill="#d1c0f4" d="M 266.5,296.5 C 266.833,296.5 267.167,296.5 267.5,296.5C 268.287,298.104 269.62,298.771 271.5,298.5C 273.775,302.307 277.108,304.641 281.5,305.5C 284.095,309.408 287.762,311.075 292.5,310.5C 295.721,313.278 299.388,315.278 303.5,316.5C 303.662,314.473 303.495,312.473 303,310.5C 299.534,308.819 299.7,307.819 303.5,307.5C 303.5,306.167 303.5,304.833 303.5,303.5C 306.779,304.031 308.113,306.031 307.5,309.5C 306.675,313.647 306.175,317.981 306,322.5C 300.92,320.076 296.42,316.909 292.5,313C 286.358,310.33 285.358,311.33 289.5,316C 293.733,318.211 297.733,320.711 301.5,323.5C 299.631,324.624 297.631,325.457 295.5,326C 297.852,326.576 298.852,328.076 298.5,330.5C 298.564,332.557 297.898,334.223 296.5,335.5C 295.562,332.911 295.229,330.411 295.5,328C 292.833,327.667 290.167,327.333 287.5,327C 290.56,326.152 293.56,325.152 296.5,324C 292.644,321.923 288.977,319.089 285.5,315.5C 285.5,314.5 285.5,313.5 285.5,312.5C 281.542,309.848 277.542,307.182 273.5,304.5C 272.833,304.167 272.167,303.833 271.5,303.5C 269.487,301.503 267.154,299.836 264.5,298.5C 263.347,295.889 264.014,295.223 266.5,296.5 Z"/></g>
<g><path style="opacity:1" fill="#c6b6e7" d="M 319.5,323.5 C 316.946,326.105 316.946,328.771 319.5,331.5C 317.589,330.925 315.922,329.925 314.5,328.5C 312.891,327.335 312.557,326.001 313.5,324.5C 315.5,324.167 317.5,323.833 319.5,323.5 Z"/></g>
<g><path style="opacity:1" fill="#b7a5db" d="M 319.5,323.5 C 320.5,323.5 321.5,323.5 322.5,323.5C 321.841,325.138 321.174,326.805 320.5,328.5C 322.219,331.523 324.552,333.856 327.5,335.5C 327.5,335.833 327.5,336.167 327.5,336.5C 324.083,335.886 321.416,334.22 319.5,331.5C 316.946,328.771 316.946,326.105 319.5,323.5 Z"/></g>
<g><path style="opacity:1" fill="#cfbfef" d="M 308.5,335.5 C 306.833,335.5 305.167,335.5 303.5,335.5C 303.351,334.448 303.517,333.448 304,332.5C 307.025,329.97 308.525,330.97 308.5,335.5 Z"/></g>
<g><path style="opacity:1" fill="#a290be" d="M 333.5,340.5 C 331.147,339.66 329.147,338.326 327.5,336.5C 327.5,336.167 327.5,335.833 327.5,335.5C 328.496,335.586 329.329,335.252 330,334.5C 331.431,336.364 332.597,338.364 333.5,340.5 Z"/></g>
<g><path style="opacity:1" fill="#ad99d4" d="M 319.5,335.5 C 322.175,337.505 324.842,339.505 327.5,341.5C 326.417,341.461 325.417,341.127 324.5,340.5C 318.426,349.872 309.759,354.539 298.5,354.5C 298.461,353.244 298.961,352.244 300,351.5C 302.621,351.704 305.455,351.704 308.5,351.5C 308.263,350.209 308.596,349.209 309.5,348.5C 309.56,349.043 309.893,349.376 310.5,349.5C 311.324,346.215 311.824,342.882 312,339.5C 313.255,338.789 314.421,337.956 315.5,337C 315.167,336.667 314.833,336.333 314.5,336C 316.134,335.506 317.801,335.34 319.5,335.5 Z"/></g>
<g><path style="opacity:1" fill="#d9c8fb" d="M 310.5,330.5 C 310.666,335.844 310.499,341.177 310,346.5C 309.637,343.456 309.137,340.456 308.5,337.5C 309.167,335.167 309.833,332.833 310.5,330.5 Z"/></g>
<g><path style="opacity:1" fill="#ab98d7" d="M 301.5,339.5 C 302.93,339.421 304.264,339.754 305.5,340.5C 306.652,343.31 307.985,345.976 309.5,348.5C 308.596,349.209 308.263,350.209 308.5,351.5C 305.455,351.704 302.621,351.704 300,351.5C 298.961,352.244 298.461,353.244 298.5,354.5C 297.167,354.5 295.833,354.5 294.5,354.5C 293.85,352.565 293.517,350.565 293.5,348.5C 295.5,348.167 297.5,347.833 299.5,347.5C 299.935,345.297 299.935,343.297 299.5,341.5C 299.833,340.5 300.5,339.833 301.5,339.5 Z"/></g>
<g><path style="opacity:1" fill="#b8a7de" d="M 313.5,330.5 C 315.131,332.643 317.131,334.31 319.5,335.5C 317.801,335.34 316.134,335.506 314.5,336C 314.833,336.333 315.167,336.667 315.5,337C 314.421,337.956 313.255,338.789 312,339.5C 311.824,342.882 311.324,346.215 310.5,349.5C 309.893,349.376 309.56,349.043 309.5,348.5C 307.985,345.976 306.652,343.31 305.5,340.5C 304.264,339.754 302.93,339.421 301.5,339.5C 301.5,339.167 301.5,338.833 301.5,338.5C 302.551,337.778 303.218,336.778 303.5,335.5C 305.167,335.5 306.833,335.5 308.5,335.5C 308.5,336.167 308.5,336.833 308.5,337.5C 309.137,340.456 309.637,343.456 310,346.5C 310.499,341.177 310.666,335.844 310.5,330.5C 311.202,329.884 312.202,329.884 313.5,330.5 Z"/></g>
<g><path style="opacity:1" fill="#d9c7f7" d="M 314.5,328.5 C 315.922,329.925 317.589,330.925 319.5,331.5C 321.416,334.22 324.083,335.886 327.5,336.5C 329.147,338.326 331.147,339.66 333.5,340.5C 334.167,341.167 334.833,341.833 335.5,342.5C 335.53,343.497 335.03,344.164 334,344.5C 332.862,344.011 331.695,343.678 330.5,343.5C 328.973,343.573 327.973,342.906 327.5,341.5C 324.842,339.505 322.175,337.505 319.5,335.5C 317.131,334.31 315.131,332.643 313.5,330.5C 314.338,330.158 314.672,329.492 314.5,328.5 Z"/></g>
<g><path style="opacity:1" fill="#c4b3e6" d="M 301.5,338.5 C 301.5,338.833 301.5,339.167 301.5,339.5C 300.5,339.833 299.833,340.5 299.5,341.5C 297.833,343.5 296.167,345.5 294.5,347.5C 295.179,343.112 297.512,340.112 301.5,338.5 Z"/></g>
<g><path style="opacity:1" fill="#ae9cd4" d="M 299.5,341.5 C 299.935,343.297 299.935,345.297 299.5,347.5C 297.5,347.833 295.5,348.167 293.5,348.5C 293.517,350.565 293.85,352.565 294.5,354.5C 292.5,354.5 290.5,354.5 288.5,354.5C 290.291,351.868 292.291,349.535 294.5,347.5C 296.167,345.5 297.833,343.5 299.5,341.5 Z"/></g>
<g><path style="opacity:1" fill="#b19ed6" d="M 293.5,337.5 C 293.509,339.308 293.009,340.975 292,342.5C 288.126,346.197 285.293,350.53 283.5,355.5C 282.094,355.973 281.427,356.973 281.5,358.5C 280.833,358.833 280.167,359.167 279.5,359.5C 279.833,358.167 280.167,356.833 280.5,355.5C 281.167,355.5 281.5,355.167 281.5,354.5C 282.476,353.185 283.476,351.852 284.5,350.5C 284.291,349.914 283.957,349.414 283.5,349C 285.004,347.509 285.837,345.676 286,343.5C 286.333,344.167 286.667,344.833 287,345.5C 287.667,343.5 289,342.167 291,341.5C 291.47,340.423 291.303,339.423 290.5,338.5C 291.391,337.89 292.391,337.557 293.5,337.5 Z"/></g>
<g><path style="opacity:1" fill="#dcccf9" d="M 307.5,309.5 C 307.5,310.167 307.5,310.833 307.5,311.5C 306.766,315.44 308.099,316.773 311.5,315.5C 311.473,318.39 310.307,319.39 308,318.5C 307.506,320.134 307.34,321.801 307.5,323.5C 306.178,323.67 305.011,323.337 304,322.5C 302.661,327.182 300.828,331.682 298.5,336C 298.833,336.5 299.167,337 299.5,337.5C 300.622,336.37 301.956,335.703 303.5,335.5C 303.218,336.778 302.551,337.778 301.5,338.5C 297.512,340.112 295.179,343.112 294.5,347.5C 292.291,349.535 290.291,351.868 288.5,354.5C 288.5,355.167 288.167,355.5 287.5,355.5C 286.518,356.141 285.518,356.807 284.5,357.5C 283.702,357.043 283.369,356.376 283.5,355.5C 285.293,350.53 288.126,346.197 292,342.5C 293.009,340.975 293.509,339.308 293.5,337.5C 293.389,336.883 293.056,336.383 292.5,336C 293.793,335.51 295.127,335.343 296.5,335.5C 297.898,334.223 298.564,332.557 298.5,330.5C 298.852,328.076 297.852,326.576 295.5,326C 297.631,325.457 299.631,324.624 301.5,323.5C 297.733,320.711 293.733,318.211 289.5,316C 285.358,311.33 286.358,310.33 292.5,313C 296.42,316.909 300.92,320.076 306,322.5C 306.175,317.981 306.675,313.647 307.5,309.5 Z"/></g>
<g><path style="opacity:1" fill="#9e8abb" d="M 337.5,343.5 C 340.545,343.508 343.545,343.841 346.5,344.5C 346.15,347.453 347.15,349.787 349.5,351.5C 345.148,349.327 341.148,346.66 337.5,343.5 Z"/></g>
<g><path style="opacity:1" fill="#cfbcec" d="M 335.5,342.5 C 336.492,342.328 337.158,342.662 337.5,343.5C 341.148,346.66 345.148,349.327 349.5,351.5C 351.123,352.779 352.79,354.113 354.5,355.5C 353.635,356.583 352.635,356.749 351.5,356C 343.995,352.265 336.995,348.098 330.5,343.5C 331.695,343.678 332.862,344.011 334,344.5C 335.03,344.164 335.53,343.497 335.5,342.5 Z"/></g>
<g><path style="opacity:1" fill="#ac97d1" d="M 156.5,345.5 C 158.663,346.72 160.83,346.72 163,345.5C 164.331,346.996 165.831,348.329 167.5,349.5C 167.291,350.086 166.957,350.586 166.5,351C 169.553,351.179 172.553,351.679 175.5,352.5C 208.203,353.826 240.87,353.826 273.5,352.5C 274.739,352.942 275.739,353.609 276.5,354.5C 240.809,354.807 205.142,354.474 169.5,353.5C 164.367,352.015 160.034,349.348 156.5,345.5 Z"/></g>
<g><path style="opacity:1" fill="#9f8ac2" d="M 169.5,353.5 C 205.142,354.474 240.809,354.807 276.5,354.5C 278.167,354.5 279.833,354.5 281.5,354.5C 281.5,355.167 281.167,355.5 280.5,355.5C 244.498,355.667 208.498,355.5 172.5,355C 171.263,354.768 170.263,354.268 169.5,353.5 Z"/></g>
<g><path style="opacity:1" fill="#cab9e4" d="M 283.5,355.5 C 283.369,356.376 283.702,357.043 284.5,357.5C 285.518,356.807 286.518,356.141 287.5,355.5C 286.602,358.396 284.935,360.729 282.5,362.5C 282.539,361.417 282.873,360.417 283.5,359.5C 283.043,358.702 282.376,358.369 281.5,358.5C 281.427,356.973 282.094,355.973 283.5,355.5 Z"/></g>
<g><path style="opacity:1" fill="#bba9da" d="M 279.5,359.5 C 279.299,363.13 277.632,365.797 274.5,367.5C 275.091,364.116 276.758,361.449 279.5,359.5 Z"/></g>
<g><path style="opacity:1" fill="#a795c3" d="M 282.5,362.5 C 283.084,365.285 282.084,366.952 279.5,367.5C 279.75,365.326 280.75,363.659 282.5,362.5 Z"/></g>
<g><path style="opacity:1" fill="#d6c1f1" d="M 281.5,358.5 C 282.376,358.369 283.043,358.702 283.5,359.5C 282.873,360.417 282.539,361.417 282.5,362.5C 280.75,363.659 279.75,365.326 279.5,367.5C 277.086,368.911 275.419,370.911 274.5,373.5C 271.531,376.642 268.698,379.975 266,383.5C 265.833,383.167 265.667,382.833 265.5,382.5C 268.992,377.702 271.992,372.702 274.5,367.5C 277.632,365.797 279.299,363.13 279.5,359.5C 280.167,359.167 280.833,358.833 281.5,358.5 Z"/></g>
<g><path style="opacity:1" fill="#af99ca" d="M 279.5,367.5 C 278.581,370.089 276.914,372.089 274.5,373.5C 275.419,370.911 277.086,368.911 279.5,367.5 Z"/></g>
</svg>
