<?xml version="1.0" encoding="UTF-8"?>
<!DOCTYPE svg PUBLIC "-//W3C//DTD SVG 1.1//EN" "http://www.w3.org/Graphics/SVG/1.1/DTD/svg11.dtd">
<svg xmlns="http://www.w3.org/2000/svg" version="1.1" width="456px" height="456px" style="shape-rendering:geometricPrecision; text-rendering:geometricPrecision; image-rendering:optimizeQuality; fill-rule:evenodd; clip-rule:evenodd" xmlns:xlink="http://www.w3.org/1999/xlink">
<g><path style="opacity:0.004" fill="#fe00ff" d="M 371.5,0.5 C 372.833,1.16667 372.833,1.16667 371.5,0.5 Z"/></g>
<g><path style="opacity:0.004" fill="#fe00ff" d="M 218.5,2.5 C 219.833,3.16667 219.833,3.16667 218.5,2.5 Z"/></g>
<g><path style="opacity:0.004" fill="#fe00ff" d="M 62.5,3.5 C 63.8333,4.16667 63.8333,4.16667 62.5,3.5 Z"/></g>
<g><path style="opacity:0.004" fill="#fe00ff" d="M 161.5,4.5 C 162.833,5.16667 162.833,5.16667 161.5,4.5 Z"/></g>
<g><path style="opacity:0.004" fill="#fe00ff" d="M 125.5,7.5 C 126.833,8.16667 126.833,8.16667 125.5,7.5 Z"/></g>
<g><path style="opacity:0.004" fill="#fe00ff" d="M 224.5,7.5 C 225.833,8.16667 225.833,8.16667 224.5,7.5 Z"/></g>
<g><path style="opacity:0.004" fill="#fe00ff" d="M 140.5,9.5 C 141.833,10.1667 141.833,10.1667 140.5,9.5 Z"/></g>
<g><path style="opacity:0.004" fill="#fe00ff" d="M 410.5,15.5 C 411.833,16.1667 411.833,16.1667 410.5,15.5 Z"/></g>
<g><path style="opacity:0.004" fill="#fe00ff" d="M 302.5,35.5 C 303.833,36.1667 303.833,36.1667 302.5,35.5 Z"/></g>
<g><path style="opacity:0.004" fill="#fe00ff" d="M 362.5,37.5 C 363.833,38.1667 363.833,38.1667 362.5,37.5 Z"/></g>
<g><path style="opacity:0.004" fill="#fe00ff" d="M 143.5,54.5 C 144.833,55.1667 144.833,55.1667 143.5,54.5 Z"/></g>
<g><path style="opacity:0.004" fill="#fe00ff" d="M 218.5,58.5 C 219.833,59.1667 219.833,59.1667 218.5,58.5 Z"/></g>
<g><path style="opacity:0.004" fill="#fe00ff" d="M 413.5,64.5 C 414.833,65.1667 414.833,65.1667 413.5,64.5 Z"/></g>
<g><path style="opacity:0.004" fill="#fe00ff" d="M 233.5,65.5 C 234.833,66.1667 234.833,66.1667 233.5,65.5 Z"/></g>
<g><path style="opacity:0.004" fill="#fe00ff" d="M 134.5,68.5 C 135.833,69.1667 135.833,69.1667 134.5,68.5 Z"/></g>
<g><path style="opacity:0.004" fill="#fe00ff" d="M 449.5,71.5 C 450.833,72.1667 450.833,72.1667 449.5,71.5 Z"/></g>
<g><path style="opacity:0.004" fill="#fe00ff" d="M 269.5,76.5 C 270.833,77.1667 270.833,77.1667 269.5,76.5 Z"/></g>
<g><path style="opacity:0.004" fill="#fe00ff" d="M 77.5,77.5 C 78.8333,78.1667 78.8333,78.1667 77.5,77.5 Z"/></g>
<g><path style="opacity:0.004" fill="#fe00ff" d="M 320.5,82.5 C 321.833,83.1667 321.833,83.1667 320.5,82.5 Z"/></g>
<g><path style="opacity:0.004" fill="#fe00ff" d="M 113.5,90.5 C 114.833,91.1667 114.833,91.1667 113.5,90.5 Z"/></g>
<g><path style="opacity:0.004" fill="#fe00ff" d="M 230.5,95.5 C 231.833,96.1667 231.833,96.1667 230.5,95.5 Z"/></g>
<g><path style="opacity:0.004" fill="#fe00ff" d="M 62.5,98.5 C 63.8333,99.1667 63.8333,99.1667 62.5,98.5 Z"/></g>
<g><path style="opacity:0.004" fill="#fe00ff" d="M 164.5,108.5 C 165.833,109.167 165.833,109.167 164.5,108.5 Z"/></g>
<g><path style="opacity:0.004" fill="#fe00ff" d="M 398.5,110.5 C 399.833,111.167 399.833,111.167 398.5,110.5 Z"/></g>
<g><path style="opacity:0.004" fill="#fe00ff" d="M 311.5,116.5 C 312.833,117.167 312.833,117.167 311.5,116.5 Z"/></g>
<g><path style="opacity:0.004" fill="#fe00ff" d="M 176.5,117.5 C 177.833,118.167 177.833,118.167 176.5,117.5 Z"/></g>
<g><path style="opacity:0.004" fill="#fe00ff" d="M 260.5,121.5 C 261.833,122.167 261.833,122.167 260.5,121.5 Z"/></g>
<g><path style="opacity:0.004" fill="#fe00ff" d="M 272.5,124.5 C 273.833,125.167 273.833,125.167 272.5,124.5 Z"/></g>
<g><path style="opacity:0.004" fill="#fe00ff" d="M 422.5,126.5 C 423.833,127.167 423.833,127.167 422.5,126.5 Z"/></g>
<g><path style="opacity:0.004" fill="#fe00ff" d="M 323.5,127.5 C 324.833,128.167 324.833,128.167 323.5,127.5 Z"/></g>
<g><path style="opacity:0.996" fill="#ac97d6" d="M 330.5,288.5 C 325.466,295.278 320.466,301.945 315.5,308.5C 314.5,308.5 313.5,308.5 312.5,308.5C 312.667,257.499 312.5,206.499 312,155.5C 309.384,150.886 305.551,147.72 300.5,146C 260.501,145.5 220.501,145.333 180.5,145.5C 180.61,142.941 179.944,140.608 178.5,138.5C 177.386,142.728 175.72,146.728 173.5,150.5C 173.167,150 172.833,149.5 172.5,149C 173.087,146.375 173.42,143.708 173.5,141C 173.672,137.523 173.006,134.356 171.5,131.5C 193.156,130.167 215.156,129.5 237.5,129.5C 259.5,129.667 281.5,129.833 303.5,130C 317.468,132.967 325.634,141.467 328,155.5C 327.837,200.178 328.671,244.511 330.5,288.5 Z"/></g>
<g><path style="opacity:0.004" fill="#fe00ff" d="M 356.5,131.5 C 357.833,132.167 357.833,132.167 356.5,131.5 Z"/></g>
<g><path style="opacity:0.004" fill="#fe00ff" d="M 362.5,145.5 C 363.833,146.167 363.833,146.167 362.5,145.5 Z"/></g>
<g><path style="opacity:0.004" fill="#fe00ff" d="M 419.5,146.5 C 420.833,147.167 420.833,147.167 419.5,146.5 Z"/></g>
<g><path style="opacity:1" fill="#c8b4f1" d="M 180.5,145.5 C 220.501,145.333 260.501,145.5 300.5,146C 305.551,147.72 309.384,150.886 312,155.5C 312.5,206.499 312.667,257.499 312.5,308.5C 313.5,308.5 314.5,308.5 315.5,308.5C 314.811,311.353 312.978,313.019 310,313.5C 308.615,312.449 307.615,311.116 307,309.5C 306.502,312.817 306.335,316.15 306.5,319.5C 304.436,319.313 302.436,318.813 300.5,318C 296.342,315.581 292.342,313.081 288.5,310.5C 292.144,310.292 294.311,308.292 295,304.5C 295.667,288.833 295.667,273.167 295,257.5C 289.48,246.925 281.647,244.758 271.5,251C 269.61,252.891 268.11,255.058 267,257.5C 266.5,270.496 266.333,283.496 266.5,296.5C 264.014,295.223 263.347,295.889 264.5,298.5C 276.063,306.066 287.396,313.899 298.5,322C 297.614,323.217 296.614,324.551 295.5,326C 296.448,326.483 297.448,326.649 298.5,326.5C 298.203,335.086 294.537,341.753 287.5,346.5C 288.389,344.264 289.722,342.264 291.5,340.5C 291.291,339.914 290.957,339.414 290.5,339C 252.162,338.833 213.829,338.333 175.5,337.5C 170.445,335.945 167.278,332.612 166,327.5C 165.5,285.168 165.333,242.835 165.5,200.5C 169.68,186.635 174.013,172.802 178.5,159C 178.167,158.167 177.833,157.333 177.5,156.5C 176.52,157.981 175.353,159.315 174,160.5C 173.833,160.167 173.667,159.833 173.5,159.5C 176.407,155.02 178.74,150.353 180.5,145.5 Z M 276.5,189.5 C 276.5,189.833 276.5,190.167 276.5,190.5C 277.817,197.667 277.817,204.834 276.5,212C 251.169,212.5 225.836,212.667 200.5,212.5C 200.5,203.833 200.5,195.167 200.5,186.5C 225.162,187.357 249.828,187.357 274.5,186.5C 275.919,187.005 276.585,188.005 276.5,189.5 Z"/></g>
<g><path style="opacity:0.004" fill="#fe00ff" d="M 53.5,156.5 C 54.8333,157.167 54.8333,157.167 53.5,156.5 Z"/></g>
<g><path style="opacity:1" fill="#78639f" d="M 170.5,126.5 C 171.167,126.5 171.5,126.833 171.5,127.5C 170.624,127.369 169.957,127.702 169.5,128.5C 169.942,129.739 170.609,130.739 171.5,131.5C 173.006,134.356 173.672,137.523 173.5,141C 173.42,143.708 173.087,146.375 172.5,149C 172.833,149.5 173.167,150 173.5,150.5C 175.72,146.728 177.386,142.728 178.5,138.5C 179.944,140.608 180.61,142.941 180.5,145.5C 178.74,150.353 176.407,155.02 173.5,159.5C 173.667,159.833 173.833,160.167 174,160.5C 175.353,159.315 176.52,157.981 177.5,156.5C 177.833,157.333 178.167,158.167 178.5,159C 174.013,172.802 169.68,186.635 165.5,200.5C 163.526,198.572 162.026,196.239 161,193.5C 158.234,184.032 154.401,175.032 149.5,166.5C 148.992,163.824 148.825,161.157 149,158.5C 150.422,160.638 152.255,161.805 154.5,162C 148.291,156.491 145.458,149.658 146,141.5C 148.032,144.854 150.032,148.187 152,151.5C 151.495,146.218 151.495,140.884 152,135.5C 152.915,134.672 153.581,133.672 154,132.5C 154.308,133.308 154.808,133.975 155.5,134.5C 156.845,133.653 157.845,132.487 158.5,131C 160.669,132.114 162.502,131.614 164,129.5C 165,130.5 166,131.5 167,132.5C 166.168,128.163 163.668,125.163 159.5,123.5C 159.565,121.304 160.232,119.304 161.5,117.5C 163.903,121.237 166.903,124.237 170.5,126.5 Z"/></g>
<g><path style="opacity:1" fill="#ad9acd" d="M 161.5,143.5 C 164.815,145.649 166.149,148.815 165.5,153C 165.792,156.214 164.959,159.048 163,161.5C 161.956,160.377 161.29,159.044 161,157.5C 160.227,152.748 160.393,148.081 161.5,143.5 Z"/></g>
<g><path style="opacity:0.999" fill="#ac98d6" d="M 191.5,168.5 C 223.549,168.029 255.549,168.529 287.5,170C 291.085,171.916 293.585,174.749 295,178.5C 295.808,193.033 295.642,207.533 294.5,222C 292.225,226.612 288.559,229.278 283.5,230C 252.833,230.667 222.167,230.667 191.5,230C 186.864,228.368 184.031,225.202 183,220.5C 182.333,206.5 182.333,192.5 183,178.5C 184.606,174.066 187.439,170.732 191.5,168.5 Z M 276.5,189.5 C 276.5,189.833 276.5,190.167 276.5,190.5C 277.817,197.667 277.817,204.834 276.5,212C 251.169,212.5 225.836,212.667 200.5,212.5C 200.5,203.833 200.5,195.167 200.5,186.5C 225.162,187.357 249.828,187.357 274.5,186.5C 275.919,187.005 276.585,188.005 276.5,189.5 Z"/></g>
<g><path style="opacity:0.004" fill="#fe00ff" d="M 398.5,171.5 C 399.833,172.167 399.833,172.167 398.5,171.5 Z"/></g>
<g><path style="opacity:0.004" fill="#fe00ff" d="M 83.5,180.5 C 84.8333,181.167 84.8333,181.167 83.5,180.5 Z"/></g>
<g><path style="opacity:0.004" fill="#fe00ff" d="M 395.5,182.5 C 396.833,183.167 396.833,183.167 395.5,182.5 Z"/></g>
<g><path style="opacity:1" fill="#ac97d6" d="M 149.5,166.5 C 154.401,175.032 158.234,184.032 161,193.5C 162.026,196.239 163.526,198.572 165.5,200.5C 165.333,242.835 165.5,285.168 166,327.5C 167.278,332.612 170.445,335.945 175.5,337.5C 213.829,338.333 252.162,338.833 290.5,339C 290.957,339.414 291.291,339.914 291.5,340.5C 289.722,342.264 288.389,344.264 287.5,346.5C 286.249,349.748 284.249,352.415 281.5,354.5C 245.498,354.667 209.498,354.5 173.5,354C 171.059,352.608 168.726,352.441 166.5,353.5C 163.6,352.557 161.267,350.89 159.5,348.5C 157.626,344.78 155.126,341.446 152,338.5C 151,335.833 150,333.167 149,330.5C 148.168,275.665 148.335,220.998 149.5,166.5 Z"/></g>
<g><path style="opacity:1" fill="#a897c8" d="M 156.5,169.5 C 158.679,169.84 160.512,170.84 162,172.5C 162.346,175.576 163.012,178.576 164,181.5C 164.18,178.044 164.847,174.711 166,171.5C 167.185,169.441 168.352,169.274 169.5,171C 168.007,177.125 167.174,183.292 167,189.5C 165.847,191.497 164.347,191.83 162.5,190.5C 160.266,186.614 158.766,182.614 158,178.5C 159.018,179.706 159.518,179.373 159.5,177.5C 158.111,175.004 157.111,172.337 156.5,169.5 Z"/></g>
<g><path style="opacity:0.004" fill="#fe00ff" d="M 125.5,197.5 C 126.833,198.167 126.833,198.167 125.5,197.5 Z"/></g>
<g><path style="opacity:0.004" fill="#fe00ff" d="M 26.5,200.5 C 27.8333,201.167 27.8333,201.167 26.5,200.5 Z"/></g>
<g><path style="opacity:0.004" fill="#fe00ff" d="M 356.5,201.5 C 357.833,202.167 357.833,202.167 356.5,201.5 Z"/></g>
<g><path style="opacity:0.004" fill="#fe00ff" d="M 110.5,203.5 C 111.833,204.167 111.833,204.167 110.5,203.5 Z"/></g>
<g><path style="opacity:0.361" fill="#9d85bd" d="M 276.5,189.5 C 276.585,188.005 275.919,187.005 274.5,186.5C 249.828,187.357 225.162,187.357 200.5,186.5C 200.5,195.167 200.5,203.833 200.5,212.5C 225.836,212.667 251.169,212.5 276.5,212C 277.817,204.834 277.817,197.667 276.5,190.5C 278.467,198.097 279.134,206.097 278.5,214.5C 252.158,214.833 225.825,214.5 199.5,213.5C 198.527,204.22 198.193,194.887 198.5,185.5C 225.167,185.5 251.833,185.5 278.5,185.5C 278.843,187.483 278.176,188.817 276.5,189.5 Z"/></g>
<g><path style="opacity:0.004" fill="#fe00ff" d="M 398.5,221.5 C 399.833,222.167 399.833,222.167 398.5,221.5 Z"/></g>
<g><path style="opacity:0.004" fill="#fe00ff" d="M 44.5,225.5 C 45.8333,226.167 45.8333,226.167 44.5,225.5 Z"/></g>
<g><path style="opacity:0.004" fill="#fe00ff" d="M 74.5,236.5 C 75.8333,237.167 75.8333,237.167 74.5,236.5 Z"/></g>
<g><path style="opacity:0.004" fill="#fe00ff" d="M 89.5,237.5 C 90.8333,238.167 90.8333,238.167 89.5,237.5 Z"/></g>
<g><path style="opacity:0.498" fill="#a285c0" d="M 171.5,127.5 C 210.898,127.78 250.065,127.78 289,127.5C 302.988,125.936 314.655,130.27 324,140.5C 327.812,146.269 329.812,152.602 330,159.5C 330.333,201.5 330.667,243.5 331,285.5C 337.066,279.27 342.566,272.604 347.5,265.5C 349.167,263.833 350.167,264.167 350.5,266.5C 344.52,277.792 338.02,288.792 331,299.5C 330.205,306.58 330.372,313.58 331.5,320.5C 330.5,320.5 329.5,320.5 328.5,320.5C 328.5,313.5 328.5,306.5 328.5,299.5C 334.896,289.053 341.563,278.72 348.5,268.5C 347.645,267.707 346.811,268.04 346,269.5C 340.969,276.022 335.803,282.356 330.5,288.5C 328.671,244.511 327.837,200.178 328,155.5C 325.634,141.467 317.468,132.967 303.5,130C 281.5,129.833 259.5,129.667 237.5,129.5C 215.156,129.5 193.156,130.167 171.5,131.5C 170.609,130.739 169.942,129.739 169.5,128.5C 169.957,127.702 170.624,127.369 171.5,127.5 Z"/></g>
<g><path style="opacity:1" fill="#ad99d7" d="M 191.5,247.5 C 205.143,246.805 211.143,253.139 209.5,266.5C 205.4,274.215 199.067,277.048 190.5,275C 183.387,270.445 180.887,263.945 183,255.5C 185.538,252.488 188.371,249.821 191.5,247.5 Z"/></g>
<g><path style="opacity:1" fill="#ac98d6" d="M 235.5,247.5 C 247.893,247.732 253.393,254.065 252,266.5C 247.057,275.314 239.891,277.647 230.5,273.5C 222.397,265.105 222.73,256.938 231.5,249C 233.058,248.79 234.391,248.29 235.5,247.5 Z"/></g>
<g><path style="opacity:1" fill="#ad99d7" d="M 288.5,310.5 C 283.759,307.931 279.426,304.764 275.5,301C 272.426,299.59 269.426,298.09 266.5,296.5C 266.333,283.496 266.5,270.496 267,257.5C 268.11,255.058 269.61,252.891 271.5,251C 281.647,244.758 289.48,246.925 295,257.5C 295.667,273.167 295.667,288.833 295,304.5C 294.311,308.292 292.144,310.292 288.5,310.5 Z"/></g>
<g><path style="opacity:0.004" fill="#fe00ff" d="M 116.5,258.5 C 117.833,259.167 117.833,259.167 116.5,258.5 Z"/></g>
<g><path style="opacity:0.004" fill="#fe00ff" d="M 353.5,265.5 C 354.833,266.167 354.833,266.167 353.5,265.5 Z"/></g>
<g><path style="opacity:0.004" fill="#fe00ff" d="M 38.5,266.5 C 39.8333,267.167 39.8333,267.167 38.5,266.5 Z"/></g>
<g><path style="opacity:0.004" fill="#fe00ff" d="M 98.5,270.5 C 99.8333,271.167 99.8333,271.167 98.5,270.5 Z"/></g>
<g><path style="opacity:0.004" fill="#fe00ff" d="M 86.5,276.5 C 87.8333,277.167 87.8333,277.167 86.5,276.5 Z"/></g>
<g><path style="opacity:1" fill="#ac98d7" d="M 233.5,287.5 C 246.991,286.823 253.157,293.156 252,306.5C 246.314,315.565 238.814,317.565 229.5,312.5C 221.958,302.703 223.291,294.37 233.5,287.5 Z"/></g>
<g><path style="opacity:1" fill="#ac98d7" d="M 191.5,287.5 C 202.833,286.166 209.166,291.166 210.5,302.5C 208.194,312.659 201.861,316.826 191.5,315C 182.057,309.074 180.057,301.24 185.5,291.5C 187.29,289.684 189.29,288.351 191.5,287.5 Z"/></g>
<g><path style="opacity:0.004" fill="#fe00ff" d="M 338.5,291.5 C 339.833,292.167 339.833,292.167 338.5,291.5 Z"/></g>
<g><path style="opacity:0.004" fill="#fe00ff" d="M 65.5,292.5 C 66.8333,293.167 66.8333,293.167 65.5,292.5 Z"/></g>
<g><path style="opacity:0.283" fill="#967db6" d="M 170.5,126.5 C 166.903,124.237 163.903,121.237 161.5,117.5C 160.232,119.304 159.565,121.304 159.5,123.5C 163.668,125.163 166.168,128.163 167,132.5C 166,131.5 165,130.5 164,129.5C 162.502,131.614 160.669,132.114 158.5,131C 157.845,132.487 156.845,133.653 155.5,134.5C 154.808,133.975 154.308,133.308 154,132.5C 153.581,133.672 152.915,134.672 152,135.5C 151.495,140.884 151.495,146.218 152,151.5C 150.032,148.187 148.032,144.854 146,141.5C 145.458,149.658 148.291,156.491 154.5,162C 152.255,161.805 150.422,160.638 149,158.5C 148.825,161.157 148.992,163.824 149.5,166.5C 148.335,220.998 148.168,275.665 149,330.5C 150,333.167 151,335.833 152,338.5C 155.126,341.446 157.626,344.78 159.5,348.5C 151.422,342.681 147.255,334.681 147,324.5C 147.421,278.365 147.421,232.365 147,186.5C 146.667,176.5 146.333,166.5 146,156.5C 144.689,152.042 143.522,147.542 142.5,143C 142.396,140.855 143.063,139.021 144.5,137.5C 146.244,136.97 147.744,136.97 149,137.5C 151.571,129.858 155.071,122.691 159.5,116C 160.944,115.219 162.277,115.386 163.5,116.5C 165.859,119.851 168.192,123.185 170.5,126.5 Z"/></g>
<g><path style="opacity:0.004" fill="#fe00ff" d="M 383.5,305.5 C 384.833,306.167 384.833,306.167 383.5,305.5 Z"/></g>
<g><path style="opacity:0.004" fill="#fe00ff" d="M 356.5,314.5 C 357.833,315.167 357.833,315.167 356.5,314.5 Z"/></g>
<g><path style="opacity:0.004" fill="#fe00ff" d="M 428.5,315.5 C 429.833,316.167 429.833,316.167 428.5,315.5 Z"/></g>
<g><path style="opacity:0.004" fill="#fe00ff" d="M 341.5,321.5 C 342.833,322.167 342.833,322.167 341.5,321.5 Z"/></g>
<g><path style="opacity:1" fill="#d7c7f5" d="M 328.5,299.5 C 322.273,305.7 318.273,313.033 316.5,321.5C 320.182,321.335 323.848,321.501 327.5,322C 323.018,322.744 318.685,323.91 314.5,325.5C 315.098,326.795 315.598,328.128 316,329.5C 329.293,337.805 342.293,346.471 355,355.5C 355.688,356.332 355.521,356.998 354.5,357.5C 349.099,354.926 344.099,351.759 339.5,348C 336.039,345.934 332.373,344.434 328.5,343.5C 327.972,342.279 327.305,341.113 326.5,340C 323.894,338.73 321.561,337.063 319.5,335C 316.649,333.711 313.649,333.211 310.5,333.5C 310.666,337.514 310.499,341.514 310,345.5C 309.185,343.377 308.185,341.377 307,339.5C 304.958,339.818 302.791,339.985 300.5,340C 295.93,346.266 290.763,352.099 285,357.5C 280.105,365.73 274.438,373.396 268,380.5C 267.685,379.092 268.018,377.759 269,376.5C 272.926,370.219 276.76,363.886 280.5,357.5C 281.404,356.791 281.737,355.791 281.5,354.5C 284.249,352.415 286.249,349.748 287.5,346.5C 294.537,341.753 298.203,335.086 298.5,326.5C 297.448,326.649 296.448,326.483 295.5,326C 296.614,324.551 297.614,323.217 298.5,322C 287.396,313.899 276.063,306.066 264.5,298.5C 263.347,295.889 264.014,295.223 266.5,296.5C 269.426,298.09 272.426,299.59 275.5,301C 279.426,304.764 283.759,307.931 288.5,310.5C 292.342,313.081 296.342,315.581 300.5,318C 302.436,318.813 304.436,319.313 306.5,319.5C 306.335,316.15 306.502,312.817 307,309.5C 307.615,311.116 308.615,312.449 310,313.5C 312.978,313.019 314.811,311.353 315.5,308.5C 320.466,301.945 325.466,295.278 330.5,288.5C 335.803,282.356 340.969,276.022 346,269.5C 346.811,268.04 347.645,267.707 348.5,268.5C 341.563,278.72 334.896,289.053 328.5,299.5 Z"/></g>
<g><path style="opacity:0.998" fill="#ac98d0" d="M 328.5,299.5 C 328.5,306.5 328.5,313.5 328.5,320.5C 329.5,320.5 330.5,320.5 331.5,320.5C 330.146,325.428 329.646,330.428 330,335.5C 338.235,342.034 346.735,348.2 355.5,354C 358.383,357.701 357.383,359.035 352.5,358C 344.27,353.392 336.27,348.559 328.5,343.5C 332.373,344.434 336.039,345.934 339.5,348C 344.099,351.759 349.099,354.926 354.5,357.5C 355.521,356.998 355.688,356.332 355,355.5C 342.293,346.471 329.293,337.805 316,329.5C 315.598,328.128 315.098,326.795 314.5,325.5C 318.685,323.91 323.018,322.744 327.5,322C 323.848,321.501 320.182,321.335 316.5,321.5C 318.273,313.033 322.273,305.7 328.5,299.5 Z"/></g>
<g><path style="opacity:0.004" fill="#fe00ff" d="M 359.5,325.5 C 360.833,326.167 360.833,326.167 359.5,325.5 Z"/></g>
<g><path style="opacity:0.004" fill="#fe00ff" d="M 332.5,327.5 C 333.833,328.167 333.833,328.167 332.5,327.5 Z"/></g>
<g><path style="opacity:0.996" fill="#ac98d1" d="M 328.5,343.5 C 327.153,342.972 325.819,342.805 324.5,343C 315.341,354.053 303.674,358.387 289.5,356C 282.549,366.414 274.549,375.914 265.5,384.5C 264.386,383.277 264.219,381.944 265,380.5C 269.858,372.769 274.691,365.102 279.5,357.5C 279.833,357.5 280.167,357.5 280.5,357.5C 276.76,363.886 272.926,370.219 269,376.5C 268.018,377.759 267.685,379.092 268,380.5C 274.438,373.396 280.105,365.73 285,357.5C 290.763,352.099 295.93,346.266 300.5,340C 302.791,339.985 304.958,339.818 307,339.5C 308.185,341.377 309.185,343.377 310,345.5C 310.499,341.514 310.666,337.514 310.5,333.5C 313.649,333.211 316.649,333.711 319.5,335C 321.561,337.063 323.894,338.73 326.5,340C 327.305,341.113 327.972,342.279 328.5,343.5 Z"/></g>
<g><path style="opacity:0.004" fill="#fe00ff" d="M 377.5,339.5 C 378.833,340.167 378.833,340.167 377.5,339.5 Z"/></g>
<g><path style="opacity:0.004" fill="#fe00ff" d="M 80.5,343.5 C 81.8333,344.167 81.8333,344.167 80.5,343.5 Z"/></g>
<g><path style="opacity:0.004" fill="#fe00ff" d="M 110.5,347.5 C 111.833,348.167 111.833,348.167 110.5,347.5 Z"/></g>
<g><path style="opacity:0.004" fill="#fe00ff" d="M 44.5,350.5 C 45.8333,351.167 45.8333,351.167 44.5,350.5 Z"/></g>
<g><path style="opacity:0.369" fill="#9a83bc" d="M 166.5,353.5 C 168.726,352.441 171.059,352.608 173.5,354C 209.498,354.5 245.498,354.667 281.5,354.5C 281.737,355.791 281.404,356.791 280.5,357.5C 280.167,357.5 279.833,357.5 279.5,357.5C 246.669,356.668 213.669,356.168 180.5,356C 175.725,355.654 171.058,354.821 166.5,353.5 Z"/></g>
<g><path style="opacity:0.004" fill="#fefffe" d="M 272.5,359.5 C 273.833,360.167 273.833,360.167 272.5,359.5 Z"/></g>
<g><path style="opacity:0.004" fill="#fe00ff" d="M 197.5,360.5 C 198.833,361.167 198.833,361.167 197.5,360.5 Z"/></g>
<g><path style="opacity:0.004" fill="#fe00ff" d="M 230.5,360.5 C 231.833,361.167 231.833,361.167 230.5,360.5 Z"/></g>
<g><path style="opacity:0.004" fill="#fe00ff" d="M 410.5,363.5 C 411.833,364.167 411.833,364.167 410.5,363.5 Z"/></g>
<g><path style="opacity:0.004" fill="#fe00ff" d="M 341.5,365.5 C 342.833,366.167 342.833,366.167 341.5,365.5 Z"/></g>
<g><path style="opacity:0.004" fill="#fe00ff" d="M 305.5,367.5 C 306.833,368.167 306.833,368.167 305.5,367.5 Z"/></g>
<g><path style="opacity:0.004" fill="#fe00ff" d="M 446.5,372.5 C 447.833,373.167 447.833,373.167 446.5,372.5 Z"/></g>
<g><path style="opacity:0.004" fill="#fe00ff" d="M 191.5,380.5 C 192.833,381.167 192.833,381.167 191.5,380.5 Z"/></g>
<g><path style="opacity:0.004" fill="#fe00ff" d="M 443.5,389.5 C 444.833,390.167 444.833,390.167 443.5,389.5 Z"/></g>
<g><path style="opacity:0.004" fill="#fe00ff" d="M 8.5,394.5 C 9.83333,395.167 9.83333,395.167 8.5,394.5 Z"/></g>
<g><path style="opacity:0.004" fill="#fe00ff" d="M 35.5,394.5 C 36.8333,395.167 36.8333,395.167 35.5,394.5 Z"/></g>
<g><path style="opacity:0.004" fill="#fe00ff" d="M 281.5,402.5 C 282.833,403.167 282.833,403.167 281.5,402.5 Z"/></g>
<g><path style="opacity:0.004" fill="#fe00ff" d="M 362.5,402.5 C 363.833,403.167 363.833,403.167 362.5,402.5 Z"/></g>
<g><path style="opacity:0.004" fill="#fe00ff" d="M 41.5,407.5 C 42.8333,408.167 42.8333,408.167 41.5,407.5 Z"/></g>
<g><path style="opacity:0.004" fill="#fe00ff" d="M 350.5,407.5 C 351.833,408.167 351.833,408.167 350.5,407.5 Z"/></g>
<g><path style="opacity:0.004" fill="#fe00ff" d="M 422.5,429.5 C 423.833,430.167 423.833,430.167 422.5,429.5 Z"/></g>
<g><path style="opacity:0.004" fill="#fe00ff" d="M 236.5,439.5 C 237.833,440.167 237.833,440.167 236.5,439.5 Z"/></g>
<g><path style="opacity:0.004" fill="#fe00ff" d="M 86.5,443.5 C 87.8333,444.167 87.8333,444.167 86.5,443.5 Z"/></g>
<g><path style="opacity:0.004" fill="#fe00ff" d="M 341.5,444.5 C 342.833,445.167 342.833,445.167 341.5,444.5 Z"/></g>
<g><path style="opacity:0.004" fill="#fe00ff" d="M 392.5,449.5 C 393.833,450.167 393.833,450.167 392.5,449.5 Z"/></g>
<g><path style="opacity:0.004" fill="#fe00ff" d="M 449.5,451.5 C 450.833,452.167 450.833,452.167 449.5,451.5 Z"/></g>
</svg>
